<svg width="51" height="22" viewBox="0 0 51 22" fill="none" xmlns="http://www.w3.org/2000/svg">
<path d="M29.736 6.1V7.156H26.016V9.88H29.58V10.936H26.016V14.5H24.9V6.1H29.736ZM31.5075 7.408C31.3075 7.408 31.1395 7.34 31.0035 7.204C30.8675 7.068 30.7995 6.904 30.7995 6.712C30.7995 6.52 30.8675 6.356 31.0035 6.22C31.1395 6.076 31.3075 6.004 31.5075 6.004C31.6995 6.004 31.8635 6.076 31.9995 6.22C32.1355 6.356 32.2035 6.52 32.2035 6.712C32.2035 6.904 32.1355 7.068 31.9995 7.204C31.8635 7.34 31.6995 7.408 31.5075 7.408ZM32.0235 14.5H30.9795V8.5H32.0235V14.5ZM34.6602 14.5H33.6162V5.74H34.6602V14.5ZM39.5169 8.5V9.508H37.9209V12.76C37.9209 13.056 37.9769 13.268 38.0889 13.396C38.2089 13.516 38.3889 13.58 38.6289 13.588C38.8689 13.588 39.1649 13.58 39.5169 13.564V14.5C38.5969 14.62 37.9249 14.544 37.5009 14.272C37.0849 14 36.8769 13.496 36.8769 12.76V9.508H35.6889V8.5H36.8769V7.132L37.9209 6.82V8.5H39.5169ZM46.2083 11.98H41.1803C41.2843 12.508 41.5283 12.924 41.9123 13.228C42.2963 13.524 42.7763 13.672 43.3523 13.672C44.1443 13.672 44.7203 13.38 45.0803 12.796L45.9683 13.3C45.3763 14.204 44.4963 14.656 43.3283 14.656C42.3843 14.656 41.6083 14.36 41.0003 13.768C40.4083 13.16 40.1123 12.404 40.1123 11.5C40.1123 10.588 40.4043 9.836 40.9883 9.244C41.5723 8.644 42.3283 8.344 43.2563 8.344C44.1363 8.344 44.8523 8.656 45.4043 9.28C45.9643 9.888 46.2443 10.632 46.2443 11.512C46.2443 11.664 46.2323 11.82 46.2083 11.98ZM43.2563 9.328C42.7043 9.328 42.2403 9.484 41.8643 9.796C41.4963 10.108 41.2683 10.532 41.1803 11.068H45.1883C45.1003 10.516 44.8803 10.088 44.5283 9.784C44.1763 9.48 43.7523 9.328 43.2563 9.328ZM48.4883 8.5V9.508C48.8323 8.764 49.4563 8.392 50.3603 8.392V9.484C49.8483 9.46 49.4083 9.596 49.0403 9.892C48.6723 10.188 48.4883 10.664 48.4883 11.32V14.5H47.4443V8.5H48.4883Z" fill="#575757"/>
<path d="M5.83751 5.50004H14.1708L9.99584 10.75L5.83751 5.50004ZM3.54584 5.17504C5.22918 7.33337 8.33751 11.3334 8.33751 11.3334V16.3334C8.33751 16.7917 8.71251 17.1667 9.17084 17.1667H10.8375C11.2958 17.1667 11.6708 16.7917 11.6708 16.3334V11.3334C11.6708 11.3334 14.7708 7.33337 16.4542 5.17504C16.8792 4.62504 16.4875 3.83337 15.7958 3.83337H4.20418C3.51251 3.83337 3.12084 4.62504 3.54584 5.17504Z" fill="#575757"/>
</svg>
